<?xml version="1.0" encoding="UTF-8"?>
<svg id="_Слой_1" data-name="Слой_1" xmlns="http://www.w3.org/2000/svg" version="1.1" viewBox="0 0 595.28 841.89">
  <!-- Generator: Adobe Illustrator 29.4.0, SVG Export Plug-In . SVG Version: 2.1.0 Build 152)  -->
  <defs>
    <style>
      .st0 {
        fill: #1d1d1b;
      }

      .st1 {
        fill: #ef7717;
      }

      .st2 {
        fill: #2d2e83;
      }

      .st3 {
        fill: #575756;
      }
    </style>
  </defs>
  <path class="st2" d="M298.52,239.92c5.84-1.13,9.17,2.59,12.58,6.78,15.76,19.37,38.83,65.71,50.96,89.62,30.89,60.88,70.17,132.85,19.65,195.18-72.35,89.27-210.63,15.91-183.18-98.07,9.45-39.25,35.61-88.01,54.86-123.5,9.6-17.7,25.07-48.41,36.64-63.27,2.09-2.68,5.15-6.11,8.48-6.75ZM291,266.43c-2.02,2.83-29.83,62.06-33.81,69.67-19.18,36.74-48.52,111.03-39.52,152.65,18.5,85.54,149.09,85.31,173.54,1.43,13.49-46.3-9.48-111.28-36.55-150.79-10.7-15.62-43.66-72.5-54.18-87.46-1.01-1.44-7.78,12.12-9.48,14.5Z"/>
  <path class="st3" d="M280.05,339.8c-37.55,50.71-72.51,103.65-100.42,160.31-8.25,17.01-15.9,34.35-21.72,52.33-10.86,33.21-14.58,72.72,33.07,46.2,10.9-6.13,21.04-13.6,30.79-21.43,38.92-31.92,72.98-69.49,105.35-107.95,32.28-38.7,62.49-79.18,90.43-121.11,27.67-41.97,54.03-85.29,73.58-131.67,4.74-11.58,9.02-23.42,11.8-35.6,14.31-64.82-42.66-28.26-68.89-7.41-59.15,47.45-108.29,106.15-153.99,166.33h0ZM280.05,339.8c45.66-60.34,94.37-119.33,152.74-167.91,9.9-7.94,20.14-15.49,31.24-21.73,33.92-19.23,50.96-7.3,42.62,31.52-2.64,12.5-6.8,24.58-11.44,36.44-9.36,23.6-20.74,46.33-33.05,68.5-37.16,66.34-81.55,128.37-130.34,186.59-32.83,38.54-67.54,75.92-107.34,107.42-10.06,7.82-20.45,15.23-31.69,21.32-34.02,18.59-51.29,6.97-42.3-31.9,2.83-12.41,7.16-24.38,11.96-36.12,29.99-69.76,72.72-133.22,117.61-194.14h0Z"/>
  <path class="st3" d="M345.09,362.14c35.74,32.56,69.94,66.89,101.39,103.64,23.21,27.79,46.54,56.35,61.64,89.58,8.04,18.06,12.45,43.21-15.71,42.07-48.73-4.11-133.15-67.45-172.54-98.73-66.41-52.83-127.06-113.19-177.4-181.58-14.23-19.7-28.03-39.85-38.13-62.08-3.92-9.43-9.11-21.64-5.71-31.86,6.28-14.42,27.37-9.08,38.96-5.44,34.49,11.95,65.1,32.54,94.91,53.07,39.51,27.91,76.86,58.77,112.59,91.34h0ZM345.09,362.14c-53.83-48.26-110.72-94.46-175.06-128.02-14.8-7.27-52.94-25.93-66.34-13.07-11.13,12.69,14.14,51.42,21.91,63.63,54.19,79.76,123.32,148.74,198.11,209.24,39.04,31.17,120.91,94.82,168.89,100.05,14.24,1.05,20.57-6.39,18.23-20.59-.91-5.8-2.84-11.49-5.09-17.02-9.38-22.16-23.25-42.24-37.47-61.58-36.31-48.32-78.72-91.79-123.17-132.63h0Z"/>
  <circle class="st1" cx="111.66" cy="292.01" r="29.14"/>
  <circle class="st1" cx="132" cy="596.01" r="29.14"/>
  <circle class="st1" cx="308.4" cy="481.4" r="19.87"/>
  <circle class="st1" cx="491.55" cy="195.92" r="19.87"/>
  <circle class="st1" cx="498.51" cy="537.66" r="13.8"/>
  <g>
    <path class="st0" d="M53.92,683.88h-3.85v-39.85h29.7c2.15,0,4.11.53,5.86,1.59,1.76,1.06,3.15,2.48,4.19,4.26,1.04,1.78,1.56,3.76,1.56,5.93,0,1.63-.3,3.16-.9,4.59-.6,1.43-1.43,2.68-2.5,3.75-1.07,1.09-2.3,1.94-3.71,2.55-1.4.62-2.91.92-4.52.92h-25.85v16.26ZM79.77,663.68c2.15,0,3.99-.77,5.5-2.31,1.51-1.54,2.27-3.39,2.27-5.57s-.76-4.03-2.27-5.57c-1.51-1.54-3.34-2.31-5.5-2.31h-25.85v15.75h25.85Z"/>
    <path class="st0" d="M100.75,683.88h-3.85v-39.85h35.1v3.91h-31.25v35.95Z"/>
    <path class="st0" d="M160.7,683.88h-3.86v-35.95h-22.13v-3.91h48.11v3.91h-22.13v35.95Z"/>
    <path class="st0" d="M207.12,684.31h-3.37c-2.48,0-4.83-.6-7.05-1.79-2.22-1.19-4.09-2.79-5.61-4.78-1.52-1.99-2.52-4.19-3.01-6.6-.18-.96-.27-1.96-.27-2.99,0-1.21.13-2.38.38-3.5.71-2.93,2.07-5.43,4.1-7.49,1.47-1.48,3.22-2.72,5.25-3.71s4.47-1.48,7.29-1.48h2.28c3.13,0,5.78.57,7.95,1.72s4.02,2.68,5.55,4.59c1.53,1.91,2.56,4.03,3.11,6.37.27,1.12.41,2.29.41,3.5v1.55h-33.12c.49,2.75,1.52,4.95,3.11,6.6,1.58,1.65,3.33,2.85,5.25,3.6,1.92.75,4.14,1.13,6.65,1.13,2.28,0,4.25-.23,5.91-.69,1.65-.46,3.04-1.09,4.15-1.89,1.11-.8,1.7-1.29,1.75-1.47h4.13c-1.92,2.73-4.17,4.64-6.76,5.71-2.59,1.08-5.29,1.62-8.09,1.62ZM220.86,666.5c-.18-2.08-.72-3.81-1.63-5.17-.91-1.37-1.95-2.45-3.12-3.26s-2.59-1.51-4.23-2.1c-1.65-.6-3.61-.9-5.89-.9s-4.4.34-6.31,1.03c-1.91.69-3.77,1.98-5.57,3.88-1.8,1.9-2.83,4.07-3.08,6.52h29.84Z"/>
    <path class="st0" d="M262.18,683.88h-3.83l-8.99-13.3h-9.8l-8.96,13.3h-3.83l11.92-17.67-8.8-13.44h3.72l9.23,14.52h3.23l9.23-14.52h3.72l-8.8,13.44,11.95,17.67Z"/>
    <path class="st0" d="M299.54,683.88h-3.23v-15.31h-27.23v15.31h-3.26v-31.11h3.26v12.52h27.23v-12.52h3.23v31.11Z"/>
    <path class="st0" d="M328.15,683.88h-7.57c-2.82,0-5.4-.7-7.72-2.1-2.33-1.4-4.18-3.28-5.55-5.63-1.38-2.35-2.06-4.96-2.06-7.82,0-2.15.4-4.17,1.19-6.05.8-1.88,1.89-3.53,3.29-4.94,1.41-1.43,3.04-2.55,4.9-3.35s3.84-1.21,5.96-1.21h7.57c2.82,0,5.4.7,7.72,2.09,2.33,1.39,4.18,3.27,5.55,5.62,1.38,2.35,2.06,4.97,2.06,7.85,0,2.15-.4,4.17-1.2,6.04-.8,1.87-1.89,3.53-3.28,4.96-1.41,1.43-3.05,2.55-4.9,3.35-1.86.81-3.84,1.21-5.96,1.21ZM328.15,680.56c3.35,0,6.2-1.19,8.57-3.58,2.36-2.39,3.54-5.28,3.54-8.66s-1.18-6.28-3.54-8.67c-2.36-2.4-5.22-3.6-8.57-3.6h-7.57c-3.33,0-6.18,1.2-8.54,3.6-2.36,2.4-3.54,5.29-3.54,8.67s1.18,6.27,3.54,8.66c2.36,2.39,5.21,3.58,8.54,3.58h7.57Z"/>
    <path class="st0" d="M384.98,683.88h-3.5l-10.8-27.83h-8.44l-10.83,27.83h-3.47l12.08-31.11h12.9l12.08,31.11Z"/>
    <path class="st0" d="M411.64,683.88h-7.57c-2.82,0-5.4-.7-7.72-2.1-2.33-1.4-4.18-3.28-5.55-5.63-1.38-2.35-2.06-4.96-2.06-7.82,0-2.15.4-4.17,1.19-6.05.8-1.88,1.89-3.53,3.29-4.94,1.41-1.43,3.04-2.55,4.9-3.35s3.84-1.21,5.96-1.21h7.57c2.82,0,5.4.7,7.72,2.09,2.33,1.39,4.18,3.27,5.55,5.62,1.38,2.35,2.06,4.97,2.06,7.85,0,2.15-.4,4.17-1.2,6.04-.8,1.87-1.89,3.53-3.28,4.96-1.41,1.43-3.05,2.55-4.9,3.35-1.86.81-3.84,1.21-5.96,1.21ZM411.64,680.56c3.35,0,6.2-1.19,8.57-3.58,2.36-2.39,3.54-5.28,3.54-8.66s-1.18-6.28-3.54-8.67c-2.36-2.4-5.22-3.6-8.57-3.6h-7.57c-3.33,0-6.18,1.2-8.54,3.6-2.36,2.4-3.54,5.29-3.54,8.67s1.18,6.27,3.54,8.66c2.36,2.39,5.21,3.58,8.54,3.58h7.57Z"/>
    <path class="st0" d="M436.29,683.88h-3.26v-31.11h27.28v3.29h-24.03v27.83Z"/>
    <path class="st0" d="M498.97,683.88h-3.26v-29.35l-24.08,29.35h-6.3v-31.11h3.26v29.35l24.08-29.35h6.3v31.11Z"/>
    <path class="st0" d="M538.91,683.88h-3.26v-29.35l-24.08,29.35h-6.3v-31.11h3.26v29.35l24.08-29.35h6.3v31.11Z"/>
  </g>
  <rect class="st2" x="260.73" y="290.94" width="13.68" height="14.33" transform="translate(166.38 -89.48) rotate(27.28)"/>
  <rect class="st2" x="321.64" y="276.25" width="11.48" height="14.33" transform="translate(752.6 365.16) rotate(150)"/>
  <polygon class="st2" points="210.24 428 198.6 437.85 195.33 453.35 194.62 471.7 196.98 484.19 215.84 488.14 212.91 467.44 216.75 448.11 225.34 415.74 210.24 428"/>
  <polygon class="st2" points="389.85 399.1 393.84 405.42 395.79 410.13 396.99 413.7 391.99 415.4 389.36 406.29 386.52 403.67 389.85 399.1"/>
</svg>